<mxfile host="65bd71144e">
    <diagram id="W3N1atvnZPHTs224bAiz" name="Page-1">
        <mxGraphModel dx="3714" dy="1542" grid="1" gridSize="10" guides="1" tooltips="1" connect="1" arrows="1" fold="1" page="0" pageScale="1" pageWidth="827" pageHeight="1169" math="0" shadow="0">
            <root>
                <mxCell id="0"/>
                <mxCell id="1" parent="0"/>
                <mxCell id="66" style="edgeStyle=none;html=1;" edge="1" parent="1" source="62">
                    <mxGeometry relative="1" as="geometry">
                        <mxPoint x="-1120" y="260" as="targetPoint"/>
                    </mxGeometry>
                </mxCell>
                <mxCell id="62" value="Ref SRAM" style="rounded=0;whiteSpace=wrap;html=1;fillColor=none;dashed=1;labelPosition=center;verticalLabelPosition=bottom;align=center;verticalAlign=top;" vertex="1" parent="1">
                    <mxGeometry x="-960" y="15" width="280" height="490" as="geometry"/>
                </mxCell>
                <mxCell id="57" style="edgeStyle=none;html=1;" edge="1" parent="1" source="49">
                    <mxGeometry relative="1" as="geometry">
                        <mxPoint x="-680" y="260" as="targetPoint"/>
                    </mxGeometry>
                </mxCell>
                <mxCell id="49" value="Ref Data" style="rounded=0;whiteSpace=wrap;html=1;" vertex="1" parent="1">
                    <mxGeometry x="-560" y="160" width="480" height="200" as="geometry"/>
                </mxCell>
                <mxCell id="50" value="" style="rounded=0;whiteSpace=wrap;html=1;fillColor=#00FF00;fontColor=#ffffff;strokeColor=#2D7600;gradientDirection=east;gradientColor=#FF0000;" vertex="1" parent="1">
                    <mxGeometry x="-560" y="160" width="240" height="10" as="geometry"/>
                </mxCell>
                <mxCell id="58" value="" style="rounded=0;whiteSpace=wrap;html=1;" vertex="1" parent="1">
                    <mxGeometry x="-800" y="95" width="80" height="230" as="geometry"/>
                </mxCell>
                <mxCell id="59" value="" style="rounded=0;whiteSpace=wrap;html=1;" vertex="1" parent="1">
                    <mxGeometry x="-840" y="135" width="80" height="230" as="geometry"/>
                </mxCell>
                <mxCell id="60" value="" style="rounded=0;whiteSpace=wrap;html=1;" vertex="1" parent="1">
                    <mxGeometry x="-880" y="175" width="80" height="230" as="geometry"/>
                </mxCell>
                <mxCell id="61" value="" style="rounded=0;whiteSpace=wrap;html=1;" vertex="1" parent="1">
                    <mxGeometry x="-920" y="215" width="80" height="230" as="geometry"/>
                </mxCell>
                <mxCell id="63" value="" style="rounded=0;whiteSpace=wrap;html=1;dashed=1;fillColor=#00FF00;fontColor=#ffffff;strokeColor=#2D7600;" vertex="1" parent="1">
                    <mxGeometry x="-800" y="95" width="80" height="10" as="geometry"/>
                </mxCell>
                <mxCell id="64" value="" style="rounded=0;whiteSpace=wrap;html=1;dashed=1;fillColor=#FFFF00;fontColor=#ffffff;strokeColor=#2D7600;" vertex="1" parent="1">
                    <mxGeometry x="-840" y="135" width="80" height="10" as="geometry"/>
                </mxCell>
                <mxCell id="65" value="" style="rounded=0;whiteSpace=wrap;html=1;dashed=1;fillColor=#FF0000;fontColor=#ffffff;strokeColor=#2D7600;gradientColor=none;" vertex="1" parent="1">
                    <mxGeometry x="-880" y="175" width="80" height="10" as="geometry"/>
                </mxCell>
                <mxCell id="68" value="" style="rounded=0;whiteSpace=wrap;html=1;fillColor=#FF0000;gradientColor=#00FF00;gradientDirection=south;" vertex="1" parent="1">
                    <mxGeometry x="-1050" width="10" height="240" as="geometry"/>
                </mxCell>
                <mxCell id="71" style="edgeStyle=none;html=1;" edge="1" parent="1" source="70">
                    <mxGeometry relative="1" as="geometry">
                        <mxPoint x="-1600" y="259.9999999999998" as="targetPoint"/>
                    </mxGeometry>
                </mxCell>
                <mxCell id="70" value="FIFO" style="rounded=0;whiteSpace=wrap;html=1;fillColor=none;gradientColor=#00FF00;gradientDirection=south;" vertex="1" parent="1">
                    <mxGeometry x="-1480" y="80" width="360" height="360" as="geometry"/>
                </mxCell>
                <mxCell id="73" style="edgeStyle=none;html=1;" edge="1" parent="1" source="72">
                    <mxGeometry relative="1" as="geometry">
                        <mxPoint x="-1780" y="560" as="targetPoint"/>
                    </mxGeometry>
                </mxCell>
                <mxCell id="72" value="AB2" style="rounded=0;whiteSpace=wrap;html=1;fillColor=none;gradientColor=#00FF00;gradientDirection=south;" vertex="1" parent="1">
                    <mxGeometry x="-1960" y="80" width="360" height="360" as="geometry"/>
                </mxCell>
                <mxCell id="77" value="SAD" style="rounded=0;whiteSpace=wrap;html=1;fillColor=none;gradientColor=#00FF00;gradientDirection=south;" vertex="1" parent="1">
                    <mxGeometry x="-1840" y="560" width="120" height="40" as="geometry"/>
                </mxCell>
                <mxCell id="78" value="" style="shape=flexArrow;endArrow=classic;startArrow=classic;html=1;exitX=0.5;exitY=0;exitDx=0;exitDy=0;" edge="1" parent="1" source="72">
                    <mxGeometry width="100" height="100" relative="1" as="geometry">
                        <mxPoint x="-1790" y="50" as="sourcePoint"/>
                        <mxPoint x="-1780" y="-40" as="targetPoint"/>
                    </mxGeometry>
                </mxCell>
                <mxCell id="79" value="Cur SRAM" style="rounded=0;whiteSpace=wrap;html=1;fillColor=none;gradientColor=#00FF00;gradientDirection=south;" vertex="1" parent="1">
                    <mxGeometry x="-1820" y="-120" width="80" height="80" as="geometry"/>
                </mxCell>
            </root>
        </mxGraphModel>
    </diagram>
</mxfile>